<svg xmlns="http://www.w3.org/2000/svg" viewBox="0 0 1200 630" role="img" aria-label="MastersMon preview">
  <defs>
    <radialGradient id="flare" cx="72%" cy="22%" r="60%">
      <stop offset="0" stop-color="#eabf68" stop-opacity=".36"/>
      <stop offset=".42" stop-color="#7ddcff" stop-opacity=".16"/>
      <stop offset="1" stop-color="#091425" stop-opacity="0"/>
    </radialGradient>
    <linearGradient id="bg" x1="0" y1="0" x2="1" y2="1">
      <stop offset="0" stop-color="#0a1322"/>
      <stop offset=".56" stop-color="#10243a"/>
      <stop offset="1" stop-color="#21142f"/>
    </linearGradient>
    <linearGradient id="gold" x1="0" y1="0" x2="1" y2="1">
      <stop offset="0" stop-color="#ffe5a8"/>
      <stop offset=".5" stop-color="#eabf68"/>
      <stop offset="1" stop-color="#ffb347"/>
    </linearGradient>
  </defs>
  <rect width="1200" height="630" fill="url(#bg)"/>
  <rect width="1200" height="630" fill="url(#flare)"/>
  <path d="M0 470C170 385 310 430 460 360c180-84 330 18 490-72 94-53 164-62 250-96v438H0Z" fill="#071422" opacity=".82"/>
  <g transform="translate(86 115)">
    <rect width="142" height="142" rx="34" fill="url(#gold)"/>
    <path d="M33 112V33h23l15 28 15-28h23v79H86V70L75 94h-8L56 70v42H33Z" fill="#102238"/>
  </g>
  <text x="86" y="335" fill="#fff8e9" font-family="Inter, Segoe UI, system-ui, sans-serif" font-size="86" font-weight="900">MastersMon</text>
  <text x="92" y="405" fill="#d8e5f5" font-family="Inter, Segoe UI, system-ui, sans-serif" font-size="34" font-weight="650">Monster capture online RPG</text>
  <text x="92" y="472" fill="#eabf68" font-family="Inter, Segoe UI, system-ui, sans-serif" font-size="26" font-weight="800">Verdantia Online · Captura · Batalla · Trade · Arena</text>
  <g fill="none" stroke="#eabf68" stroke-opacity=".38" stroke-width="3">
    <path d="M780 128h260q38 0 38 38v194"/>
    <path d="M812 164h212q26 0 26 26v154"/>
  </g>
  <circle cx="978" cy="200" r="64" fill="#7ddcff" opacity=".16"/>
  <circle cx="1018" cy="276" r="92" fill="#eabf68" opacity=".13"/>
</svg>
