<svg xmlns="http://www.w3.org/2000/svg" viewBox="0 0 1200 520" preserveAspectRatio="xMidYMid slice">
  <defs>
    <linearGradient id="bg" x1="0" y1="0" x2="1" y2="1">
      <stop offset="0" stop-color="#122a42"/>
      <stop offset=".55" stop-color="#102136"/>
      <stop offset="1" stop-color="#182345"/>
    </linearGradient>
  </defs>
  <rect width="1200" height="520" fill="url(#bg)"/>
  <g fill="none" stroke="#7ddcff" stroke-opacity=".12">
    <path d="M0 120 H1200M0 260 H1200M0 400 H1200"/>
    <path d="M140 0 V520M320 0 V520M520 0 V520M760 0 V520M980 0 V520"/>
    <path d="M80 440 C220 330 320 360 440 250 C570 130 720 220 850 122 C970 30 1100 86 1180 28"/>
  </g>
  <g fill="#eabf68" opacity=".2">
    <circle cx="188" cy="350" r="5"/><circle cx="456" cy="246" r="4"/><circle cx="840" cy="124" r="6"/><circle cx="1010" cy="82" r="4"/>
  </g>
</svg>
