<svg xmlns="http://www.w3.org/2000/svg" viewBox="0 0 1600 720" preserveAspectRatio="xMidYMid slice">
  <defs>
    <radialGradient id="sun" cx="74%" cy="28%" r="45%">
      <stop offset="0" stop-color="#eabf68" stop-opacity=".42"/>
      <stop offset=".38" stop-color="#7ddcff" stop-opacity=".18"/>
      <stop offset="1" stop-color="#091425" stop-opacity="0"/>
    </radialGradient>
    <linearGradient id="sky" x1="0" y1="0" x2="1" y2="1">
      <stop offset="0" stop-color="#142a45"/>
      <stop offset=".52" stop-color="#0b1a2e"/>
      <stop offset="1" stop-color="#180f2a"/>
    </linearGradient>
    <filter id="blur"><feGaussianBlur stdDeviation="10"/></filter>
  </defs>
  <rect width="1600" height="720" fill="url(#sky)"/>
  <rect width="1600" height="720" fill="url(#sun)"/>
  <path d="M0 520 C220 430 356 490 540 420 C760 336 900 422 1070 352 C1280 268 1415 320 1600 245 L1600 720 L0 720 Z" fill="#11243a" opacity=".72"/>
  <path d="M0 584 C250 500 420 566 610 504 C800 442 1040 520 1190 440 C1360 350 1490 390 1600 332 L1600 720 L0 720 Z" fill="#081625" opacity=".95"/>
  <path d="M120 130 C320 80 450 105 620 70 M920 120 C1080 66 1280 80 1460 40" stroke="#eabf68" stroke-opacity=".18" stroke-width="2" fill="none"/>
  <g filter="url(#blur)" opacity=".24">
    <circle cx="300" cy="220" r="110" fill="#7ddcff"/>
    <circle cx="1180" cy="140" r="150" fill="#eabf68"/>
    <circle cx="1430" cy="430" r="110" fill="#a989ff"/>
  </g>
</svg>
